{
  "accessors": [
    {
      "bufferView": 2,
      "componentType": 5126,
      "count": 13432,
      "max": [
        1.0,
        0.3504819869995117,
        0.43814900517463684
      ],
      "min": [
        -1.0,
        -0.3504810035228729,
        -0.43814900517463684
      ],
      "type": "VEC3"
    },
    {
      "bufferView": 2,
      "byteOffset": 161184,
      "componentType": 5126,
      "count": 13432,
      "max": [
        0.9999836087226868,
        0.999999463558197,
        0.9999442100524902
      ],
      "min": [
        -0.999987781047821,
        -1.0,
        -0.9999105334281921
      ],
      "type": "VEC3"
    },
    {
      "bufferView": 3,
      "componentType": 5126,
      "count": 13432,
      "max": [
        0.9999997615814209,
        0.9999735951423645,
        0.9999698996543884,
        1.0
      ],
      "min": [
        -0.999970555305481,
        -0.9999101758003235,
        -0.9994578957557678,
        -1.0
      ],
      "type": "VEC4"
    },
    {
      "bufferView": 1,
      "componentType": 5126,
      "count": 13432,
      "max": [
        0.9955800175666809,
        0.9856029748916626
      ],
      "min": [
        0.014516999945044518,
        -0.8024179935455322
      ],
      "type": "VEC2"
    },
    {
      "bufferView": 0,
      "componentType": 5125,
      "count": 70584,
      "type": "SCALAR"
    }
  ],
  "asset": {
    "extras": {
      "author": "yihsuanchen13 (https://sketchfab.com/yihsuanchen13)",
      "license": "CC-BY-4.0 (http://creativecommons.org/licenses/by/4.0/)",
      "source": "https://sketchfab.com/3d-models/ppn03-3c6737c169aa4619b9a00e4ae90a9624",
      "title": "ppn03白"
    },
    "generator": "Sketchfab-12.68.0",
    "version": "2.0"
  },
  "bufferViews": [
    {
      "buffer": 0,
      "byteLength": 282336,
      "name": "floatBufferViews",
      "target": 34963
    },
    {
      "buffer": 0,
      "byteLength": 107456,
      "byteOffset": 282336,
      "byteStride": 8,
      "name": "floatBufferViews",
      "target": 34962
    },
    {
      "buffer": 0,
      "byteLength": 322368,
      "byteOffset": 389792,
      "byteStride": 12,
      "name": "floatBufferViews",
      "target": 34962
    },
    {
      "buffer": 0,
      "byteLength": 214912,
      "byteOffset": 712160,
      "byteStride": 16,
      "name": "floatBufferViews",
      "target": 34962
    }
  ],
  "buffers": [
    {
      "byteLength": 927072,
      "uri": "scene.bin"
    }
  ],
  "images": [
    {
      "uri": "textures/ppn01Material__123_baseColor.jpeg"
    },
    {
      "uri": "textures/ppn01Material__123_metallicRoughness.png"
    },
    {
      "uri": "textures/ppn01Material__123_normal.png"
    }
  ],
  "materials": [
    {
      "doubleSided": true,
      "name": "ppn01Material__123",
      "normalTexture": {
        "index": 2
      },
      "occlusionTexture": {
        "index": 1
      },
      "pbrMetallicRoughness": {
        "baseColorTexture": {
          "index": 0
        },
        "metallicRoughnessTexture": {
          "index": 1
        }
      }
    }
  ],
  "meshes": [
    {
      "name": "defaultMaterial",
      "primitives": [
        {
          "attributes": {
            "NORMAL": 1,
            "POSITION": 0,
            "TANGENT": 2,
            "TEXCOORD_0": 3
          },
          "indices": 4,
          "material": 0,
          "mode": 4
        }
      ]
    }
  ],
  "nodes": [
    {
      "children": [
        1
      ],
      "matrix": [
        1.0,
        0.0,
        0.0,
        0.0,
        0.0,
        2.220446049250313e-16,
        -1.0,
        0.0,
        0.0,
        1.0,
        2.220446049250313e-16,
        0.0,
        0.0,
        0.0,
        0.0,
        1.0
      ],
      "name": "Sketchfab_model"
    },
    {
      "children": [
        2
      ],
      "matrix": [
        1.0,
        0.0,
        0.0,
        0.0,
        0.0,
        -4.371139006309477e-08,
        0.999999999999999,
        0.0,
        0.0,
        -0.999999999999999,
        -4.371139006309477e-08,
        0.0,
        0.0,
        0.0,
        0.0,
        1.0
      ],
      "name": "Collada visual scene group"
    },
    {
      "children": [
        3
      ],
      "name": "Object044"
    },
    {
      "mesh": 0,
      "name": "defaultMaterial"
    }
  ],
  "samplers": [
    {
      "magFilter": 9729,
      "minFilter": 9987,
      "wrapS": 10497,
      "wrapT": 10497
    }
  ],
  "scene": 0,
  "scenes": [
    {
      "name": "Sketchfab_Scene",
      "nodes": [
        0
      ]
    }
  ],
  "textures": [
    {
      "sampler": 0,
      "source": 0
    },
    {
      "sampler": 0,
      "source": 1
    },
    {
      "sampler": 0,
      "source": 2
    }
  ]
}
