{
  "accessors": [
    {
      "bufferView": 2,
      "componentType": 5126,
      "count": 63288,
      "max": [
        2.9126760959625244,
        0.9492869973182678,
        1.316519021987915
      ],
      "min": [
        -2.339716911315918,
        -1.2745850086212158,
        -1.6589670181274414
      ],
      "type": "VEC3"
    },
    {
      "bufferView": 2,
      "byteOffset": 759456,
      "componentType": 5126,
      "count": 63288,
      "max": [
        0.9999985098838806,
        1.0,
        0.9999998211860657
      ],
      "min": [
        -0.9999377727508545,
        -1.0,
        -0.9998628497123718
      ],
      "type": "VEC3"
    },
    {
      "bufferView": 3,
      "componentType": 5126,
      "count": 63288,
      "max": [
        0.9999894499778748,
        0.9999839663505554,
        1.0,
        1.0
      ],
      "min": [
        -0.9999729990959167,
        -0.9997087121009827,
        -1.0,
        -1.0
      ],
      "type": "VEC4"
    },
    {
      "bufferView": 1,
      "componentType": 5126,
      "count": 63288,
      "max": [
        0.99378901720047,
        1.0
      ],
      "min": [
        0.0,
        0.0
      ],
      "type": "VEC2"
    },
    {
      "bufferView": 0,
      "componentType": 5125,
      "count": 299508,
      "type": "SCALAR"
    }
  ],
  "asset": {
    "extras": {
      "author": "antonhavemercy (https://sketchfab.com/antonhavemercy)",
      "license": "CC-BY-4.0 (http://creativecommons.org/licenses/by/4.0/)",
      "source": "https://sketchfab.com/3d-models/converse-one-star-7bed53213ce44365b31dadebb8b778dc",
      "title": "Converse One Star"
    },
    "generator": "Sketchfab-12.68.0",
    "version": "2.0"
  },
  "bufferViews": [
    {
      "buffer": 0,
      "byteLength": 1198032,
      "name": "floatBufferViews",
      "target": 34963
    },
    {
      "buffer": 0,
      "byteLength": 506304,
      "byteOffset": 1198032,
      "byteStride": 8,
      "name": "floatBufferViews",
      "target": 34962
    },
    {
      "buffer": 0,
      "byteLength": 1518912,
      "byteOffset": 1704336,
      "byteStride": 12,
      "name": "floatBufferViews",
      "target": 34962
    },
    {
      "buffer": 0,
      "byteLength": 1012608,
      "byteOffset": 3223248,
      "byteStride": 16,
      "name": "floatBufferViews",
      "target": 34962
    }
  ],
  "buffers": [
    {
      "byteLength": 4235856,
      "uri": "scene.bin"
    }
  ],
  "extensionsRequired": [
    "KHR_materials_pbrSpecularGlossiness"
  ],
  "extensionsUsed": [
    "KHR_materials_pbrSpecularGlossiness"
  ],
  "images": [
    {
      "uri": "textures/model_diffuse.jpeg"
    },
    {
      "uri": "textures/model_specularGlossiness.png"
    },
    {
      "uri": "textures/model_normal.png"
    }
  ],
  "materials": [
    {
      "doubleSided": true,
      "extensions": {
        "KHR_materials_pbrSpecularGlossiness": {
          "diffuseFactor": [
            1.0,
            1.0,
            1.0,
            1.0
          ],
          "diffuseTexture": {
            "index": 0
          },
          "glossinessFactor": 0.28139801421544486,
          "specularFactor": [
            1.0,
            1.0,
            1.0
          ],
          "specularGlossinessTexture": {
            "index": 1
          }
        }
      },
      "name": "model",
      "normalTexture": {
        "index": 2,
        "scale": 0.2631574947254498
      }
    }
  ],
  "meshes": [
    {
      "name": "Object_0",
      "primitives": [
        {
          "attributes": {
            "NORMAL": 1,
            "POSITION": 0,
            "TANGENT": 2,
            "TEXCOORD_0": 3
          },
          "indices": 4,
          "material": 0,
          "mode": 4
        }
      ]
    }
  ],
  "nodes": [
    {
      "children": [
        1
      ],
      "matrix": [
        0.9302172064781189,
        -0.3480527698993683,
        0.11642684787511817,
        0.0,
        0.3624223470687866,
        0.8211450576782228,
        -0.4408751130104063,
        0.0,
        0.05784447491168976,
        0.4523053169250486,
        0.8899853825569154,
        0.0,
        0.08884551376104355,
        0.13949409127235407,
        0.20997834205627444,
        1.0
      ],
      "name": "Sketchfab_model"
    },
    {
      "children": [
        2
      ],
      "name": "model.obj.cleaner.materialmerger.gles"
    },
    {
      "mesh": 0,
      "name": "Object_2"
    }
  ],
  "samplers": [
    {
      "magFilter": 9729,
      "minFilter": 9987,
      "wrapS": 10497,
      "wrapT": 10497
    }
  ],
  "scene": 0,
  "scenes": [
    {
      "name": "Sketchfab_Scene",
      "nodes": [
        0
      ]
    }
  ],
  "textures": [
    {
      "sampler": 0,
      "source": 0
    },
    {
      "sampler": 0,
      "source": 1
    },
    {
      "sampler": 0,
      "source": 2
    }
  ]
}
