{
  "accessors": [
    {
      "bufferView": 2,
      "componentType": 5126,
      "count": 56576,
      "max": [
        1.382511019706726,
        0.4400489926338196,
        0.8138629794120789
      ],
      "min": [
        -1.382511019706726,
        -1.31107497215271,
        -0.0014059999957680702
      ],
      "type": "VEC3"
    },
    {
      "bufferView": 2,
      "byteOffset": 678912,
      "componentType": 5126,
      "count": 56576,
      "max": [
        0.9988775849342346,
        0.9987908005714417,
        0.9998846054077148
      ],
      "min": [
        -0.9988775849342346,
        -0.9987063407897949,
        -0.9994661211967468
      ],
      "type": "VEC3"
    },
    {
      "bufferView": 1,
      "componentType": 5126,
      "count": 56576,
      "max": [
        0.9742100238800049,
        0.47837498784065247
      ],
      "min": [
        0.05172500014305115,
        0.0265749990940094
      ],
      "type": "VEC2"
    },
    {
      "bufferView": 0,
      "componentType": 5125,
      "count": 84864,
      "type": "SCALAR"
    },
    {
      "bufferView": 2,
      "byteOffset": 1357824,
      "componentType": 5126,
      "count": 18062,
      "max": [
        1.5906280279159546,
        2.2323169708251953,
        0.8357539772987366
      ],
      "min": [
        -1.5906269550323486,
        -2.222270965576172,
        -0.9996799826622009
      ],
      "type": "VEC3"
    },
    {
      "bufferView": 2,
      "byteOffset": 1574568,
      "componentType": 5126,
      "count": 18062,
      "max": [
        0.9999997615814209,
        1.0,
        1.0
      ],
      "min": [
        -0.9999997615814209,
        -1.0,
        -1.0
      ],
      "type": "VEC3"
    },
    {
      "bufferView": 1,
      "byteOffset": 452608,
      "componentType": 5126,
      "count": 18062,
      "max": [
        0.9762150049209595,
        0.9997339844703674
      ],
      "min": [
        0.027435999363660812,
        0.02759999968111515
      ],
      "type": "VEC2"
    },
    {
      "bufferView": 0,
      "byteOffset": 339456,
      "componentType": 5125,
      "count": 97536,
      "type": "SCALAR"
    }
  ],
  "asset": {
    "extras": {
      "author": "Marcokiyo (https://sketchfab.com/Marcokiyo)",
      "license": "CC-BY-4.0 (http://creativecommons.org/licenses/by/4.0/)",
      "source": "https://sketchfab.com/3d-models/muestra-zapatos-46c6e255fb0647748571f50e79477cc9",
      "title": "Muestra Zapatos"
    },
    "generator": "Sketchfab-12.68.0",
    "version": "2.0"
  },
  "bufferViews": [
    {
      "buffer": 0,
      "byteLength": 729600,
      "name": "floatBufferViews",
      "target": 34963
    },
    {
      "buffer": 0,
      "byteLength": 597104,
      "byteOffset": 729600,
      "byteStride": 8,
      "name": "floatBufferViews",
      "target": 34962
    },
    {
      "buffer": 0,
      "byteLength": 1791312,
      "byteOffset": 1326704,
      "byteStride": 12,
      "name": "floatBufferViews",
      "target": 34962
    }
  ],
  "buffers": [
    {
      "byteLength": 3118016,
      "uri": "scene.bin"
    }
  ],
  "images": [
    {
      "uri": "textures/Zapato_baseColor.png"
    }
  ],
  "materials": [
    {
      "doubleSided": true,
      "name": "Zapato",
      "pbrMetallicRoughness": {
        "baseColorTexture": {
          "index": 0
        },
        "metallicFactor": 0.0,
        "roughnessFactor": 0.8783850360451106
      }
    }
  ],
  "meshes": [
    {
      "name": "Object_0",
      "primitives": [
        {
          "attributes": {
            "NORMAL": 1,
            "POSITION": 0,
            "TEXCOORD_0": 2
          },
          "indices": 3,
          "material": 0,
          "mode": 4
        }
      ]
    },
    {
      "name": "Object_1",
      "primitives": [
        {
          "attributes": {
            "NORMAL": 5,
            "POSITION": 4,
            "TEXCOORD_0": 6
          },
          "indices": 7,
          "material": 0,
          "mode": 4
        }
      ]
    }
  ],
  "nodes": [
    {
      "children": [
        1
      ],
      "matrix": [
        1.0,
        0.0,
        0.0,
        0.0,
        0.0,
        2.220446049250313e-16,
        -1.0,
        0.0,
        0.0,
        1.0,
        2.220446049250313e-16,
        0.0,
        0.0,
        0.0,
        0.0,
        1.0
      ],
      "name": "Sketchfab_model"
    },
    {
      "children": [
        2,
        3
      ],
      "name": "Muestra Zapatos.obj.cleaner.materialmerger.gles"
    },
    {
      "mesh": 0,
      "name": "Object_2"
    },
    {
      "mesh": 1,
      "name": "Object_3"
    }
  ],
  "samplers": [
    {
      "magFilter": 9729,
      "minFilter": 9987,
      "wrapS": 10497,
      "wrapT": 10497
    }
  ],
  "scene": 0,
  "scenes": [
    {
      "name": "Sketchfab_Scene",
      "nodes": [
        0
      ]
    }
  ],
  "textures": [
    {
      "sampler": 0,
      "source": 0
    }
  ]
}
